<mxfile host="app.diagrams.net" modified="2023-10-23T10:46:49.529Z" agent="Mozilla/5.0 (Windows NT 10.0; Win64; x64) AppleWebKit/537.36 (KHTML, like Gecko) Chrome/118.0.0.0 Safari/537.36 Edg/118.0.2088.61" etag="lhrFPIuFMnIlOYMzaJfy" version="22.0.6" type="device" pages="2">
  <diagram name="Page-1" id="5348f1db-0dfa-24cf-5d06-2057accb5106">
    <mxGraphModel dx="1424" dy="755" grid="1" gridSize="10" guides="1" tooltips="1" connect="1" arrows="1" fold="1" page="1" pageScale="1.5" pageWidth="826" pageHeight="1169" background="none" math="0" shadow="0">
      <root>
        <mxCell id="0" style=";html=1;" />
        <mxCell id="1" style=";html=1;" parent="0" />
        <mxCell id="s_mo3S3DV3q-ZQvmNLNy-10" value="" style="html=1;shadow=0;dashed=0;shape=mxgraph.bootstrap.rrect;rSize=5;strokeColor=#5B646A;html=1;whiteSpace=wrap;fillColor=#4c4947;fontColor=#ffffff;verticalAlign=bottom;align=left;spacing=20;spacingBottom=0;fontSize=14;" parent="1" vertex="1">
          <mxGeometry x="40" y="680" width="320" height="560" as="geometry" />
        </mxCell>
        <mxCell id="s_mo3S3DV3q-ZQvmNLNy-11" value="&lt;b&gt;&lt;font color=&quot;#222022&quot; style=&quot;font-size: 25px;&quot; face=&quot;Georgia&quot;&gt;TastyPizza&lt;/font&gt;&lt;/b&gt;" style="html=1;shadow=0;dashed=0;shape=mxgraph.bootstrap.topButton;rSize=5;perimeter=none;whiteSpace=wrap;fillColor=#6ead3a;strokeColor=#5B646A;fontColor=#ffffff;resizeWidth=1;fontSize=18;align=center;spacing=20;" parent="s_mo3S3DV3q-ZQvmNLNy-10" vertex="1">
          <mxGeometry width="320" height="50" relative="1" as="geometry" />
        </mxCell>
        <mxCell id="s_mo3S3DV3q-ZQvmNLNy-18" value="&lt;div style=&quot;text-align: center;&quot;&gt;&lt;span style=&quot;color: rgb(76, 73, 71); background-color: initial;&quot;&gt;Some example text&amp;nbsp;&lt;/span&gt;&lt;/div&gt;&lt;font color=&quot;#4c4947&quot;&gt;&lt;br style=&quot;font-size: 14px&quot;&gt;&lt;div style=&quot;text-align: center;&quot;&gt;&lt;span style=&quot;background-color: initial;&quot;&gt;And this is more example text.&lt;/span&gt;&lt;/div&gt;&lt;/font&gt;" style="html=1;shadow=0;dashed=0;shape=mxgraph.bootstrap.rrect;rSize=5;strokeColor=#999999;strokeWidth=1;fillColor=#efedef;fontColor=#6C767D;whiteSpace=wrap;align=left;verticalAlign=middle;spacingLeft=10;fontSize=14;spacing=10;" parent="s_mo3S3DV3q-ZQvmNLNy-10" vertex="1">
          <mxGeometry x="37.5" y="70" width="245" height="80" as="geometry" />
        </mxCell>
        <mxCell id="s_mo3S3DV3q-ZQvmNLNy-25" value="" style="html=1;shadow=0;dashed=0;shape=mxgraph.bootstrap.rrect;rSize=5;fillColor=#efedef;strokeColor=none;" parent="s_mo3S3DV3q-ZQvmNLNy-10" vertex="1">
          <mxGeometry x="37.5" y="180" width="245" height="345" as="geometry" />
        </mxCell>
        <mxCell id="s_mo3S3DV3q-ZQvmNLNy-26" value="Email address" style="fillColor=none;strokeColor=none;align=left;spacing=20;fontSize=14;" parent="s_mo3S3DV3q-ZQvmNLNy-25" vertex="1">
          <mxGeometry width="220" height="40" relative="1" as="geometry">
            <mxPoint y="10" as="offset" />
          </mxGeometry>
        </mxCell>
        <mxCell id="s_mo3S3DV3q-ZQvmNLNy-27" value="email@example.com" style="html=1;shadow=0;dashed=0;shape=mxgraph.bootstrap.rrect;rSize=5;fillColor=#efedef;strokeColor=#4c4947;align=left;spacing=15;fontSize=14;fontColor=#6C767D;" parent="s_mo3S3DV3q-ZQvmNLNy-25" vertex="1">
          <mxGeometry width="200" height="30" relative="1" as="geometry">
            <mxPoint x="20" y="50" as="offset" />
          </mxGeometry>
        </mxCell>
        <mxCell id="s_mo3S3DV3q-ZQvmNLNy-28" value="Password" style="fillColor=none;strokeColor=none;align=left;spacing=20;fontSize=14;" parent="s_mo3S3DV3q-ZQvmNLNy-25" vertex="1">
          <mxGeometry width="220" height="40" relative="1" as="geometry">
            <mxPoint y="90" as="offset" />
          </mxGeometry>
        </mxCell>
        <mxCell id="s_mo3S3DV3q-ZQvmNLNy-29" value="Password" style="html=1;shadow=0;dashed=0;shape=mxgraph.bootstrap.rrect;rSize=5;fillColor=none;strokeColor=#999999;align=left;spacing=15;fontSize=14;fontColor=#6C767D;" parent="s_mo3S3DV3q-ZQvmNLNy-25" vertex="1">
          <mxGeometry width="200" height="30" relative="1" as="geometry">
            <mxPoint x="20" y="130" as="offset" />
          </mxGeometry>
        </mxCell>
        <mxCell id="s_mo3S3DV3q-ZQvmNLNy-30" value="Remember me" style="html=1;shadow=0;dashed=0;shape=mxgraph.bootstrap.rrect;rSize=2;fillColor=#EDEDED;strokeColor=#999999;align=left;fontSize=14;fontColor=#000000;labelPosition=right;verticalLabelPosition=middle;verticalAlign=middle;spacingLeft=5;spacingTop=-2;gradientColor=#DEDEDE;" parent="s_mo3S3DV3q-ZQvmNLNy-25" vertex="1">
          <mxGeometry width="10" height="10" relative="1" as="geometry">
            <mxPoint x="20" y="180" as="offset" />
          </mxGeometry>
        </mxCell>
        <mxCell id="s_mo3S3DV3q-ZQvmNLNy-31" value="&lt;font color=&quot;#222022&quot;&gt;Sign in&lt;/font&gt;" style="html=1;shadow=0;dashed=0;shape=mxgraph.bootstrap.rrect;rSize=5;fillColor=#6ead3a;strokeColor=none;align=center;fontSize=14;fontColor=#FFFFFF;" parent="s_mo3S3DV3q-ZQvmNLNy-25" vertex="1">
          <mxGeometry width="200" height="40" relative="1" as="geometry">
            <mxPoint x="20" y="210" as="offset" />
          </mxGeometry>
        </mxCell>
        <mxCell id="s_mo3S3DV3q-ZQvmNLNy-32" value="" style="shape=line;strokeColor=#999999;perimeter=none;resizeWidth=1;" parent="s_mo3S3DV3q-ZQvmNLNy-25" vertex="1">
          <mxGeometry width="244.99999999999997" height="10" relative="1" as="geometry">
            <mxPoint y="260" as="offset" />
          </mxGeometry>
        </mxCell>
        <mxCell id="s_mo3S3DV3q-ZQvmNLNy-33" value="New around here? Sign up&lt;br&gt;&lt;br&gt;Forgot password?" style="html=1;fillColor=none;strokeColor=none;align=left;spacing=20;fontSize=14;" parent="s_mo3S3DV3q-ZQvmNLNy-25" vertex="1">
          <mxGeometry width="220" height="60" relative="1" as="geometry">
            <mxPoint y="275" as="offset" />
          </mxGeometry>
        </mxCell>
        <mxCell id="s_mo3S3DV3q-ZQvmNLNy-34" value="" style="html=1;shadow=0;dashed=0;shape=mxgraph.bootstrap.rrect;rSize=5;strokeColor=#5B646A;html=1;whiteSpace=wrap;fillColor=#4c4947;fontColor=#ffffff;verticalAlign=bottom;align=left;spacing=20;spacingBottom=0;fontSize=14;" parent="1" vertex="1">
          <mxGeometry x="440" y="680" width="320" height="560" as="geometry" />
        </mxCell>
        <mxCell id="s_mo3S3DV3q-ZQvmNLNy-35" value="&lt;b&gt;&lt;font color=&quot;#222022&quot; style=&quot;font-size: 25px;&quot; face=&quot;Georgia&quot;&gt;TastyPizza&lt;/font&gt;&lt;/b&gt;" style="html=1;shadow=0;dashed=0;shape=mxgraph.bootstrap.topButton;rSize=5;perimeter=none;whiteSpace=wrap;fillColor=#6ead3a;strokeColor=#5B646A;fontColor=#ffffff;resizeWidth=1;fontSize=18;align=center;spacing=20;" parent="s_mo3S3DV3q-ZQvmNLNy-34" vertex="1">
          <mxGeometry width="320" height="50" relative="1" as="geometry" />
        </mxCell>
        <mxCell id="s_mo3S3DV3q-ZQvmNLNy-46" value="&lt;font style=&quot;font-size: 18px;&quot; color=&quot;#efedef&quot; face=&quot;Georgia&quot;&gt;Забронировать столик&lt;/font&gt;" style="html=1;shadow=0;dashed=0;shape=mxgraph.bootstrap.rrect;rSize=5;fillColor=#6ead3a;strokeColor=none;align=center;fontSize=14;fontColor=#FFFFFF;" parent="s_mo3S3DV3q-ZQvmNLNy-34" vertex="1">
          <mxGeometry x="40" y="100" width="230" height="40" as="geometry" />
        </mxCell>
        <mxCell id="s_mo3S3DV3q-ZQvmNLNy-47" value="&lt;font style=&quot;font-size: 18px;&quot; color=&quot;#efedef&quot; face=&quot;Georgia&quot;&gt;Мои брони&lt;/font&gt;" style="html=1;shadow=0;dashed=0;shape=mxgraph.bootstrap.rrect;rSize=5;fillColor=#6ead3a;strokeColor=none;align=center;fontSize=14;fontColor=#FFFFFF;" parent="s_mo3S3DV3q-ZQvmNLNy-34" vertex="1">
          <mxGeometry x="40" y="170" width="230" height="40" as="geometry" />
        </mxCell>
        <mxCell id="s_mo3S3DV3q-ZQvmNLNy-48" value="" style="shape=mxgraph.signs.food.fast_food;html=1;pointerEvents=1;fillColor=#efedef;strokeColor=none;verticalLabelPosition=bottom;verticalAlign=top;align=center;sketch=0;" parent="s_mo3S3DV3q-ZQvmNLNy-34" vertex="1">
          <mxGeometry x="83" y="340" width="144" height="117" as="geometry" />
        </mxCell>
        <mxCell id="s_mo3S3DV3q-ZQvmNLNy-49" value="&lt;font style=&quot;font-size: 18px;&quot; color=&quot;#efedef&quot; face=&quot;Georgia&quot;&gt;Мой профиль&lt;/font&gt;" style="html=1;shadow=0;dashed=0;shape=mxgraph.bootstrap.rrect;rSize=5;fillColor=#6ead3a;strokeColor=none;align=center;fontSize=14;fontColor=#FFFFFF;" parent="s_mo3S3DV3q-ZQvmNLNy-34" vertex="1">
          <mxGeometry x="40" y="240" width="230" height="40" as="geometry" />
        </mxCell>
        <mxCell id="s_mo3S3DV3q-ZQvmNLNy-50" value="&lt;font style=&quot;font-size: 18px;&quot; color=&quot;#efedef&quot; face=&quot;Georgia&quot;&gt;Наше меню&lt;/font&gt;" style="html=1;shadow=0;dashed=0;shape=mxgraph.bootstrap.rrect;rSize=5;fillColor=#6ead3a;strokeColor=none;align=center;fontSize=14;fontColor=#FFFFFF;" parent="s_mo3S3DV3q-ZQvmNLNy-34" vertex="1">
          <mxGeometry x="45" y="490" width="230" height="40" as="geometry" />
        </mxCell>
        <mxCell id="s_mo3S3DV3q-ZQvmNLNy-51" value="" style="html=1;shadow=0;dashed=0;shape=mxgraph.bootstrap.rrect;rSize=5;strokeColor=#5B646A;html=1;whiteSpace=wrap;fillColor=#4c4947;fontColor=#ffffff;verticalAlign=bottom;align=left;spacing=20;spacingBottom=0;fontSize=14;" parent="1" vertex="1">
          <mxGeometry x="840" y="680" width="320" height="560" as="geometry" />
        </mxCell>
        <mxCell id="s_mo3S3DV3q-ZQvmNLNy-52" value="&lt;b&gt;&lt;font color=&quot;#222022&quot; style=&quot;font-size: 25px;&quot; face=&quot;Georgia&quot;&gt;TastyPizza&lt;/font&gt;&lt;/b&gt;" style="html=1;shadow=0;dashed=0;shape=mxgraph.bootstrap.topButton;rSize=5;perimeter=none;whiteSpace=wrap;fillColor=#6ead3a;strokeColor=#5B646A;fontColor=#ffffff;resizeWidth=1;fontSize=18;align=center;spacing=20;" parent="s_mo3S3DV3q-ZQvmNLNy-51" vertex="1">
          <mxGeometry width="320" height="50" relative="1" as="geometry" />
        </mxCell>
        <mxCell id="s_mo3S3DV3q-ZQvmNLNy-72" value="Some example text&lt;br&gt;for example" style="html=1;shadow=0;dashed=0;shape=mxgraph.bootstrap.rrect;rSize=5;strokeColor=#DFDFDF;html=1;whiteSpace=wrap;fillColor=#efedef;fontColor=#000000;verticalAlign=bottom;align=center;spacing=20;fontSize=14;" parent="s_mo3S3DV3q-ZQvmNLNy-51" vertex="1">
          <mxGeometry x="20" y="70" width="130" height="220" as="geometry" />
        </mxCell>
        <mxCell id="s_mo3S3DV3q-ZQvmNLNy-73" value="Image table1" style="html=1;shadow=0;dashed=0;shape=mxgraph.bootstrap.topButton;rSize=5;perimeter=none;whiteSpace=wrap;fillColor=#777777;strokeColor=#DFDFDF;fontColor=#DEE2E6;resizeWidth=1;fontSize=18;" parent="s_mo3S3DV3q-ZQvmNLNy-72" vertex="1">
          <mxGeometry width="110" height="120" relative="1" as="geometry">
            <mxPoint x="10" y="10" as="offset" />
          </mxGeometry>
        </mxCell>
        <mxCell id="s_mo3S3DV3q-ZQvmNLNy-80" value="Some example text&lt;br&gt;for example" style="html=1;shadow=0;dashed=0;shape=mxgraph.bootstrap.rrect;rSize=5;strokeColor=#DFDFDF;html=1;whiteSpace=wrap;fillColor=#efedef;fontColor=#000000;verticalAlign=bottom;align=center;spacing=20;fontSize=14;" parent="s_mo3S3DV3q-ZQvmNLNy-51" vertex="1">
          <mxGeometry x="170" y="70" width="130" height="220" as="geometry" />
        </mxCell>
        <mxCell id="s_mo3S3DV3q-ZQvmNLNy-81" value="Image table1" style="html=1;shadow=0;dashed=0;shape=mxgraph.bootstrap.topButton;rSize=5;perimeter=none;whiteSpace=wrap;fillColor=#777777;strokeColor=#DFDFDF;fontColor=#DEE2E6;resizeWidth=1;fontSize=18;" parent="s_mo3S3DV3q-ZQvmNLNy-80" vertex="1">
          <mxGeometry width="110" height="120" relative="1" as="geometry">
            <mxPoint x="10" y="10" as="offset" />
          </mxGeometry>
        </mxCell>
        <mxCell id="s_mo3S3DV3q-ZQvmNLNy-82" value="Some example text&lt;br&gt;for example" style="html=1;shadow=0;dashed=0;shape=mxgraph.bootstrap.rrect;rSize=5;strokeColor=#DFDFDF;html=1;whiteSpace=wrap;fillColor=#efedef;fontColor=#000000;verticalAlign=bottom;align=center;spacing=20;fontSize=14;" parent="s_mo3S3DV3q-ZQvmNLNy-51" vertex="1">
          <mxGeometry x="20" y="310" width="130" height="220" as="geometry" />
        </mxCell>
        <mxCell id="s_mo3S3DV3q-ZQvmNLNy-83" value="Image table1" style="html=1;shadow=0;dashed=0;shape=mxgraph.bootstrap.topButton;rSize=5;perimeter=none;whiteSpace=wrap;fillColor=#777777;strokeColor=#DFDFDF;fontColor=#DEE2E6;resizeWidth=1;fontSize=18;" parent="s_mo3S3DV3q-ZQvmNLNy-82" vertex="1">
          <mxGeometry width="110" height="120" relative="1" as="geometry">
            <mxPoint x="10" y="10" as="offset" />
          </mxGeometry>
        </mxCell>
        <mxCell id="s_mo3S3DV3q-ZQvmNLNy-84" value="Some example text&lt;br&gt;for example" style="html=1;shadow=0;dashed=0;shape=mxgraph.bootstrap.rrect;rSize=5;strokeColor=#DFDFDF;html=1;whiteSpace=wrap;fillColor=#efedef;fontColor=#000000;verticalAlign=bottom;align=center;spacing=20;fontSize=14;" parent="s_mo3S3DV3q-ZQvmNLNy-51" vertex="1">
          <mxGeometry x="170" y="310" width="130" height="220" as="geometry" />
        </mxCell>
        <mxCell id="s_mo3S3DV3q-ZQvmNLNy-85" value="Image table1" style="html=1;shadow=0;dashed=0;shape=mxgraph.bootstrap.topButton;rSize=5;perimeter=none;whiteSpace=wrap;fillColor=#777777;strokeColor=#DFDFDF;fontColor=#DEE2E6;resizeWidth=1;fontSize=18;" parent="s_mo3S3DV3q-ZQvmNLNy-84" vertex="1">
          <mxGeometry width="110" height="120" relative="1" as="geometry">
            <mxPoint x="10" y="10" as="offset" />
          </mxGeometry>
        </mxCell>
        <mxCell id="s_mo3S3DV3q-ZQvmNLNy-61" value="" style="html=1;shadow=0;dashed=0;shape=mxgraph.bootstrap.rrect;rSize=5;strokeColor=#5B646A;html=1;whiteSpace=wrap;fillColor=#4c4947;fontColor=#ffffff;verticalAlign=bottom;align=left;spacing=20;spacingBottom=0;fontSize=14;" parent="1" vertex="1">
          <mxGeometry x="1239" y="680" width="320" height="560" as="geometry" />
        </mxCell>
        <mxCell id="s_mo3S3DV3q-ZQvmNLNy-62" value="&lt;b&gt;&lt;font color=&quot;#222022&quot; style=&quot;font-size: 25px;&quot; face=&quot;Georgia&quot;&gt;TastyPizza&lt;/font&gt;&lt;/b&gt;" style="html=1;shadow=0;dashed=0;shape=mxgraph.bootstrap.topButton;rSize=5;perimeter=none;whiteSpace=wrap;fillColor=#6ead3a;strokeColor=#5B646A;fontColor=#ffffff;resizeWidth=1;fontSize=18;align=center;spacing=20;" parent="s_mo3S3DV3q-ZQvmNLNy-61" vertex="1">
          <mxGeometry width="320" height="50" relative="1" as="geometry" />
        </mxCell>
        <mxCell id="s_mo3S3DV3q-ZQvmNLNy-63" value="First table slide" style="html=1;shadow=0;dashed=0;strokeColor=none;strokeWidth=1;fillColor=#777777;fontColor=#555555;whiteSpace=wrap;align=center;verticalAlign=middle;fontStyle=0;fontSize=40;" parent="s_mo3S3DV3q-ZQvmNLNy-61" vertex="1">
          <mxGeometry x="30" y="75" width="260" height="230" as="geometry" />
        </mxCell>
        <mxCell id="s_mo3S3DV3q-ZQvmNLNy-64" value="" style="html=1;verticalLabelPosition=bottom;labelBackgroundColor=#ffffff;verticalAlign=top;shadow=0;dashed=0;strokeWidth=4;shape=mxgraph.ios7.misc.more;strokeColor=#efedef;" parent="s_mo3S3DV3q-ZQvmNLNy-63" vertex="1">
          <mxGeometry x="1" y="0.5" width="7" height="14" relative="1" as="geometry">
            <mxPoint x="-20" y="-7" as="offset" />
          </mxGeometry>
        </mxCell>
        <mxCell id="s_mo3S3DV3q-ZQvmNLNy-65" value="" style="flipH=1;html=1;verticalLabelPosition=bottom;labelBackgroundColor=#ffffff;verticalAlign=top;shadow=0;dashed=0;strokeWidth=4;shape=mxgraph.ios7.misc.more;strokeColor=#efedef;" parent="s_mo3S3DV3q-ZQvmNLNy-63" vertex="1">
          <mxGeometry y="0.5" width="7" height="14" relative="1" as="geometry">
            <mxPoint x="20" y="-7" as="offset" />
          </mxGeometry>
        </mxCell>
        <mxCell id="s_mo3S3DV3q-ZQvmNLNy-66" value="" style="html=1;shadow=0;strokeColor=none;fillColor=#ffffff;" parent="s_mo3S3DV3q-ZQvmNLNy-63" vertex="1">
          <mxGeometry x="0.5" y="1" width="30" height="4" relative="1" as="geometry">
            <mxPoint x="-50" y="-20" as="offset" />
          </mxGeometry>
        </mxCell>
        <mxCell id="s_mo3S3DV3q-ZQvmNLNy-67" value="" style="html=1;shadow=0;strokeColor=none;fillColor=#BBBBBB;" parent="s_mo3S3DV3q-ZQvmNLNy-63" vertex="1">
          <mxGeometry x="0.5" y="1" width="30" height="4" relative="1" as="geometry">
            <mxPoint x="-15" y="-20" as="offset" />
          </mxGeometry>
        </mxCell>
        <mxCell id="s_mo3S3DV3q-ZQvmNLNy-68" value="" style="html=1;shadow=0;strokeColor=none;fillColor=#BBBBBB;" parent="s_mo3S3DV3q-ZQvmNLNy-63" vertex="1">
          <mxGeometry x="0.5" y="1" width="30" height="4" relative="1" as="geometry">
            <mxPoint x="20" y="-20" as="offset" />
          </mxGeometry>
        </mxCell>
        <mxCell id="s_mo3S3DV3q-ZQvmNLNy-87" value="&lt;font face=&quot;Georgia&quot; color=&quot;#efedef&quot;&gt;&lt;span style=&quot;font-size: 18px;&quot;&gt;Забронировать&lt;/span&gt;&lt;/font&gt;" style="html=1;shadow=0;dashed=0;shape=mxgraph.bootstrap.rrect;rSize=5;fillColor=#6ead3a;strokeColor=none;align=center;fontSize=14;fontColor=#FFFFFF;" parent="s_mo3S3DV3q-ZQvmNLNy-61" vertex="1">
          <mxGeometry x="30" y="440" width="260" height="40" as="geometry" />
        </mxCell>
        <mxCell id="s_mo3S3DV3q-ZQvmNLNy-88" value="&lt;font face=&quot;Georgia&quot; color=&quot;#efedef&quot;&gt;&lt;span style=&quot;font-size: 18px;&quot;&gt;Вернуться к выбору&lt;/span&gt;&lt;/font&gt;" style="html=1;shadow=0;dashed=0;shape=mxgraph.bootstrap.rrect;rSize=5;fillColor=#222022;strokeColor=none;align=center;fontSize=14;fontColor=#FFFFFF;" parent="s_mo3S3DV3q-ZQvmNLNy-61" vertex="1">
          <mxGeometry x="30" y="500" width="260" height="40" as="geometry" />
        </mxCell>
        <mxCell id="s_mo3S3DV3q-ZQvmNLNy-89" value="Выбрать дату" style="html=1;shadow=0;dashed=0;shape=mxgraph.bootstrap.rrect;rSize=5;strokeColor=none;strokeWidth=1;fillColor=#6C767D;fontColor=#ffffff;whiteSpace=wrap;align=right;verticalAlign=middle;fontStyle=0;fontSize=14;spacingRight=20;" parent="s_mo3S3DV3q-ZQvmNLNy-61" vertex="1">
          <mxGeometry x="30" y="320" width="140" height="40" as="geometry" />
        </mxCell>
        <mxCell id="s_mo3S3DV3q-ZQvmNLNy-90" value="" style="shape=triangle;direction=south;fillColor=#ffffff;strokeColor=none;perimeter=none;" parent="s_mo3S3DV3q-ZQvmNLNy-89" vertex="1">
          <mxGeometry x="1" y="0.5" width="10" height="5" relative="1" as="geometry">
            <mxPoint x="-17" y="-2.5" as="offset" />
          </mxGeometry>
        </mxCell>
        <mxCell id="s_mo3S3DV3q-ZQvmNLNy-91" value="Выбрать время" style="html=1;shadow=0;dashed=0;shape=mxgraph.bootstrap.rrect;rSize=5;strokeColor=none;strokeWidth=1;fillColor=#6C767D;fontColor=#ffffff;whiteSpace=wrap;align=right;verticalAlign=middle;fontStyle=0;fontSize=14;spacingRight=20;" parent="s_mo3S3DV3q-ZQvmNLNy-61" vertex="1">
          <mxGeometry x="30" y="380" width="140" height="40" as="geometry" />
        </mxCell>
        <mxCell id="s_mo3S3DV3q-ZQvmNLNy-92" value="" style="shape=triangle;direction=south;fillColor=#ffffff;strokeColor=none;perimeter=none;" parent="s_mo3S3DV3q-ZQvmNLNy-91" vertex="1">
          <mxGeometry x="1" y="0.5" width="10" height="5" relative="1" as="geometry">
            <mxPoint x="-17" y="-2.5" as="offset" />
          </mxGeometry>
        </mxCell>
        <mxCell id="s_mo3S3DV3q-ZQvmNLNy-94" value="&lt;div style=&quot;text-align: center;&quot;&gt;&lt;font color=&quot;#4c4947&quot;&gt;Проверка статуса столика&lt;/font&gt;&lt;/div&gt;&lt;div style=&quot;text-align: center;&quot;&gt;&lt;font color=&quot;#4c4947&quot;&gt;&lt;br&gt;&lt;/font&gt;&lt;/div&gt;&lt;div style=&quot;text-align: center;&quot;&gt;&lt;br&gt;&lt;/div&gt;" style="html=1;shadow=0;dashed=0;shape=mxgraph.bootstrap.rrect;rSize=5;strokeColor=#999999;strokeWidth=1;fillColor=#efedef;fontColor=#6C767D;whiteSpace=wrap;align=left;verticalAlign=middle;spacingLeft=0;fontSize=14;spacing=10;" parent="s_mo3S3DV3q-ZQvmNLNy-61" vertex="1">
          <mxGeometry x="191" y="320" width="99" height="100" as="geometry" />
        </mxCell>
        <mxCell id="s_mo3S3DV3q-ZQvmNLNy-95" value="" style="html=1;shadow=0;dashed=0;shape=mxgraph.basic.arc;startAngle=0.25;endAngle=1;strokeWidth=4;strokeColor=#6C767D;" parent="s_mo3S3DV3q-ZQvmNLNy-61" vertex="1">
          <mxGeometry x="226" y="385" width="30" height="30" as="geometry" />
        </mxCell>
        <mxCell id="s_mo3S3DV3q-ZQvmNLNy-96" value="" style="html=1;shadow=0;dashed=0;shape=mxgraph.bootstrap.rrect;rSize=5;strokeColor=#5B646A;html=1;whiteSpace=wrap;fillColor=#4c4947;fontColor=#ffffff;verticalAlign=bottom;align=left;spacing=20;spacingBottom=0;fontSize=14;" parent="1" vertex="1">
          <mxGeometry x="40" y="1280" width="320" height="560" as="geometry" />
        </mxCell>
        <mxCell id="s_mo3S3DV3q-ZQvmNLNy-97" value="&lt;b&gt;&lt;font color=&quot;#222022&quot; style=&quot;font-size: 25px;&quot; face=&quot;Georgia&quot;&gt;TastyPizza&lt;/font&gt;&lt;/b&gt;" style="html=1;shadow=0;dashed=0;shape=mxgraph.bootstrap.topButton;rSize=5;perimeter=none;whiteSpace=wrap;fillColor=#6ead3a;strokeColor=#5B646A;fontColor=#ffffff;resizeWidth=1;fontSize=18;align=center;spacing=20;" parent="s_mo3S3DV3q-ZQvmNLNy-96" vertex="1">
          <mxGeometry width="320" height="50" relative="1" as="geometry" />
        </mxCell>
        <mxCell id="s_mo3S3DV3q-ZQvmNLNy-98" value="Дата: 23.10.2023&lt;br&gt;Время: 19:00&lt;br&gt;Столик 1&lt;br&gt;&lt;br&gt;&lt;br&gt;&lt;br&gt;" style="html=1;shadow=0;dashed=0;shape=mxgraph.bootstrap.rrect;rSize=5;strokeColor=#DFDFDF;html=1;whiteSpace=wrap;fillColor=#efedef;fontColor=#000000;verticalAlign=bottom;align=right;spacing=20;fontSize=14;" parent="s_mo3S3DV3q-ZQvmNLNy-96" vertex="1">
          <mxGeometry x="20" y="70" width="280" height="180" as="geometry" />
        </mxCell>
        <mxCell id="s_mo3S3DV3q-ZQvmNLNy-99" value="Image table1" style="html=1;shadow=0;dashed=0;shape=mxgraph.bootstrap.topButton;rSize=5;perimeter=none;whiteSpace=wrap;fillColor=#777777;strokeColor=#DFDFDF;fontColor=#DEE2E6;resizeWidth=1;fontSize=18;" parent="s_mo3S3DV3q-ZQvmNLNy-98" vertex="1">
          <mxGeometry width="100" height="100" relative="1" as="geometry">
            <mxPoint x="18" y="10" as="offset" />
          </mxGeometry>
        </mxCell>
        <mxCell id="s_mo3S3DV3q-ZQvmNLNy-119" value="&lt;font style=&quot;font-size: 18px;&quot; color=&quot;#efedef&quot; face=&quot;Georgia&quot;&gt;Подтвердить&lt;/font&gt;" style="html=1;shadow=0;dashed=0;shape=mxgraph.bootstrap.rrect;rSize=5;fillColor=#6ead3a;strokeColor=none;align=center;fontSize=14;fontColor=#FFFFFF;" parent="s_mo3S3DV3q-ZQvmNLNy-98" vertex="1">
          <mxGeometry x="17.5" y="130" width="112.5" height="40" as="geometry" />
        </mxCell>
        <mxCell id="s_mo3S3DV3q-ZQvmNLNy-120" value="&lt;font style=&quot;font-size: 18px;&quot; color=&quot;#efedef&quot; face=&quot;Georgia&quot;&gt;Удалить&lt;/font&gt;" style="html=1;shadow=0;dashed=0;shape=mxgraph.bootstrap.rrect;rSize=5;fillColor=#222022;strokeColor=none;align=center;fontSize=14;fontColor=#FFFFFF;" parent="s_mo3S3DV3q-ZQvmNLNy-98" vertex="1">
          <mxGeometry x="150" y="130" width="112.5" height="40" as="geometry" />
        </mxCell>
        <mxCell id="s_mo3S3DV3q-ZQvmNLNy-121" value="Дата: 01.01.2023&lt;br&gt;Время: 19:00&lt;br&gt;Столик 1&lt;br&gt;&lt;br&gt;&lt;br&gt;&lt;br&gt;&lt;br&gt;" style="html=1;shadow=0;dashed=0;shape=mxgraph.bootstrap.rrect;rSize=5;strokeColor=#DFDFDF;html=1;whiteSpace=wrap;fillColor=#efedef;fontColor=#000000;verticalAlign=bottom;align=right;spacing=20;fontSize=14;" parent="s_mo3S3DV3q-ZQvmNLNy-96" vertex="1">
          <mxGeometry x="20" y="270" width="280" height="180" as="geometry" />
        </mxCell>
        <mxCell id="s_mo3S3DV3q-ZQvmNLNy-122" value="Image table1" style="html=1;shadow=0;dashed=0;shape=mxgraph.bootstrap.topButton;rSize=5;perimeter=none;whiteSpace=wrap;fillColor=#777777;strokeColor=#DFDFDF;fontColor=#DEE2E6;resizeWidth=1;fontSize=18;" parent="s_mo3S3DV3q-ZQvmNLNy-121" vertex="1">
          <mxGeometry width="100" height="100" relative="1" as="geometry">
            <mxPoint x="18" y="10" as="offset" />
          </mxGeometry>
        </mxCell>
        <mxCell id="s_mo3S3DV3q-ZQvmNLNy-123" value="&lt;font style=&quot;font-size: 18px;&quot; color=&quot;#efedef&quot; face=&quot;Georgia&quot;&gt;Заказать повторно&lt;/font&gt;" style="html=1;shadow=0;dashed=0;shape=mxgraph.bootstrap.rrect;rSize=5;fillColor=#6ead3a;strokeColor=none;align=center;fontSize=14;fontColor=#FFFFFF;" parent="s_mo3S3DV3q-ZQvmNLNy-121" vertex="1">
          <mxGeometry x="17.5" y="130" width="242.5" height="40" as="geometry" />
        </mxCell>
        <mxCell id="s_mo3S3DV3q-ZQvmNLNy-106" value="Забронировать столик" style="text;html=1;align=center;verticalAlign=middle;resizable=0;points=[];autosize=1;strokeColor=none;fillColor=none;" parent="1" vertex="1">
          <mxGeometry x="840" y="640" width="150" height="30" as="geometry" />
        </mxCell>
        <mxCell id="s_mo3S3DV3q-ZQvmNLNy-107" value="Выбор столика" style="text;html=1;align=center;verticalAlign=middle;resizable=0;points=[];autosize=1;strokeColor=none;fillColor=none;" parent="1" vertex="1">
          <mxGeometry x="1239" y="640" width="110" height="30" as="geometry" />
        </mxCell>
        <mxCell id="s_mo3S3DV3q-ZQvmNLNy-108" value="Мои брони" style="text;html=1;align=center;verticalAlign=middle;resizable=0;points=[];autosize=1;strokeColor=none;fillColor=none;" parent="1" vertex="1">
          <mxGeometry x="40" y="1250" width="80" height="30" as="geometry" />
        </mxCell>
        <mxCell id="s_mo3S3DV3q-ZQvmNLNy-109" value="" style="html=1;shadow=0;dashed=0;shape=mxgraph.bootstrap.rrect;rSize=5;strokeColor=#5B646A;html=1;whiteSpace=wrap;fillColor=#4c4947;fontColor=#ffffff;verticalAlign=bottom;align=left;spacing=20;spacingBottom=0;fontSize=14;" parent="1" vertex="1">
          <mxGeometry x="440" y="1280" width="320" height="560" as="geometry" />
        </mxCell>
        <mxCell id="s_mo3S3DV3q-ZQvmNLNy-110" value="&lt;b&gt;&lt;font color=&quot;#222022&quot; style=&quot;font-size: 25px;&quot; face=&quot;Georgia&quot;&gt;TastyPizza&lt;/font&gt;&lt;/b&gt;" style="html=1;shadow=0;dashed=0;shape=mxgraph.bootstrap.topButton;rSize=5;perimeter=none;whiteSpace=wrap;fillColor=#6ead3a;strokeColor=#5B646A;fontColor=#ffffff;resizeWidth=1;fontSize=18;align=center;spacing=20;" parent="s_mo3S3DV3q-ZQvmNLNy-109" vertex="1">
          <mxGeometry width="320" height="50" relative="1" as="geometry" />
        </mxCell>
        <mxCell id="s_mo3S3DV3q-ZQvmNLNy-136" value="&lt;div style=&quot;text-align: center;&quot;&gt;&lt;font color=&quot;#4c4947&quot;&gt;ФИО&lt;/font&gt;&lt;/div&gt;" style="html=1;shadow=0;dashed=0;shape=mxgraph.bootstrap.rrect;rSize=5;strokeColor=#999999;strokeWidth=1;fillColor=#efedef;fontColor=#6C767D;whiteSpace=wrap;align=left;verticalAlign=middle;spacingLeft=10;fontSize=14;spacing=10;" parent="s_mo3S3DV3q-ZQvmNLNy-109" vertex="1">
          <mxGeometry x="20" y="80" width="270" height="30" as="geometry" />
        </mxCell>
        <mxCell id="s_mo3S3DV3q-ZQvmNLNy-137" value="&lt;div style=&quot;text-align: center;&quot;&gt;&lt;font color=&quot;#4c4947&quot;&gt;Дата рождения&lt;/font&gt;&lt;/div&gt;" style="html=1;shadow=0;dashed=0;shape=mxgraph.bootstrap.rrect;rSize=5;strokeColor=#999999;strokeWidth=1;fillColor=#efedef;fontColor=#6C767D;whiteSpace=wrap;align=left;verticalAlign=middle;spacingLeft=10;fontSize=14;spacing=10;" parent="s_mo3S3DV3q-ZQvmNLNy-109" vertex="1">
          <mxGeometry x="20" y="130" width="270" height="30" as="geometry" />
        </mxCell>
        <mxCell id="s_mo3S3DV3q-ZQvmNLNy-138" value="&lt;div style=&quot;text-align: center;&quot;&gt;&lt;font color=&quot;#4c4947&quot;&gt;Телефон&lt;/font&gt;&lt;/div&gt;" style="html=1;shadow=0;dashed=0;shape=mxgraph.bootstrap.rrect;rSize=5;strokeColor=#999999;strokeWidth=1;fillColor=#efedef;fontColor=#6C767D;whiteSpace=wrap;align=left;verticalAlign=middle;spacingLeft=10;fontSize=14;spacing=10;" parent="s_mo3S3DV3q-ZQvmNLNy-109" vertex="1">
          <mxGeometry x="20" y="180" width="270" height="30" as="geometry" />
        </mxCell>
        <mxCell id="s_mo3S3DV3q-ZQvmNLNy-139" value="&lt;div style=&quot;text-align: center;&quot;&gt;&lt;font color=&quot;#4c4947&quot;&gt;О себе&lt;/font&gt;&lt;/div&gt;&lt;div style=&quot;text-align: center;&quot;&gt;&lt;font color=&quot;#4c4947&quot;&gt;&lt;br&gt;&lt;/font&gt;&lt;/div&gt;&lt;div style=&quot;text-align: center;&quot;&gt;&lt;font color=&quot;#4c4947&quot;&gt;&lt;br&gt;&lt;/font&gt;&lt;/div&gt;&lt;div style=&quot;text-align: center;&quot;&gt;&lt;font color=&quot;#4c4947&quot;&gt;&lt;br&gt;&lt;/font&gt;&lt;/div&gt;" style="html=1;shadow=0;dashed=0;shape=mxgraph.bootstrap.rrect;rSize=5;strokeColor=#999999;strokeWidth=1;fillColor=#efedef;fontColor=#6C767D;whiteSpace=wrap;align=left;verticalAlign=middle;spacingLeft=10;fontSize=14;spacing=10;" parent="s_mo3S3DV3q-ZQvmNLNy-109" vertex="1">
          <mxGeometry x="20" y="230" width="270" height="90" as="geometry" />
        </mxCell>
        <mxCell id="s_mo3S3DV3q-ZQvmNLNy-140" value="&lt;font style=&quot;font-size: 18px;&quot; color=&quot;#efedef&quot; face=&quot;Georgia&quot;&gt;Изменить&lt;/font&gt;" style="html=1;shadow=0;dashed=0;shape=mxgraph.bootstrap.rrect;rSize=5;fillColor=#6ead3a;strokeColor=none;align=center;fontSize=14;fontColor=#FFFFFF;" parent="s_mo3S3DV3q-ZQvmNLNy-109" vertex="1">
          <mxGeometry x="95" y="340" width="120" height="40" as="geometry" />
        </mxCell>
        <mxCell id="s_mo3S3DV3q-ZQvmNLNy-141" value="&lt;font style=&quot;font-size: 18px;&quot; color=&quot;#efedef&quot; face=&quot;Georgia&quot;&gt;Удалить профиль&lt;/font&gt;" style="html=1;shadow=0;dashed=0;shape=mxgraph.bootstrap.rrect;rSize=5;fillColor=#222022;strokeColor=none;align=center;fontSize=14;fontColor=#FFFFFF;" parent="s_mo3S3DV3q-ZQvmNLNy-109" vertex="1">
          <mxGeometry x="20" y="500" width="270" height="40" as="geometry" />
        </mxCell>
        <mxCell id="s_mo3S3DV3q-ZQvmNLNy-113" value="Моий профиль" style="text;html=1;align=center;verticalAlign=middle;resizable=0;points=[];autosize=1;strokeColor=none;fillColor=none;" parent="1" vertex="1">
          <mxGeometry x="440" y="1250" width="110" height="30" as="geometry" />
        </mxCell>
        <mxCell id="s_mo3S3DV3q-ZQvmNLNy-114" value="" style="html=1;shadow=0;dashed=0;shape=mxgraph.bootstrap.rrect;rSize=5;strokeColor=#5B646A;html=1;whiteSpace=wrap;fillColor=#4c4947;fontColor=#ffffff;verticalAlign=bottom;align=left;spacing=20;spacingBottom=0;fontSize=14;" parent="1" vertex="1">
          <mxGeometry x="840" y="1280" width="320" height="560" as="geometry" />
        </mxCell>
        <mxCell id="s_mo3S3DV3q-ZQvmNLNy-115" value="&lt;b&gt;&lt;font color=&quot;#222022&quot; style=&quot;font-size: 25px;&quot; face=&quot;Georgia&quot;&gt;TastyPizza&lt;/font&gt;&lt;/b&gt;" style="html=1;shadow=0;dashed=0;shape=mxgraph.bootstrap.topButton;rSize=5;perimeter=none;whiteSpace=wrap;fillColor=#6ead3a;strokeColor=#5B646A;fontColor=#ffffff;resizeWidth=1;fontSize=18;align=center;spacing=20;" parent="s_mo3S3DV3q-ZQvmNLNy-114" vertex="1">
          <mxGeometry width="320" height="50" relative="1" as="geometry" />
        </mxCell>
        <mxCell id="s_mo3S3DV3q-ZQvmNLNy-116" value="Some example text&lt;br&gt;for example&lt;br&gt;&lt;br&gt;&lt;br&gt;&lt;br&gt;Price: 500p" style="html=1;shadow=0;dashed=0;shape=mxgraph.bootstrap.rrect;rSize=5;strokeColor=#DFDFDF;html=1;whiteSpace=wrap;fillColor=#efedef;fontColor=#000000;verticalAlign=bottom;align=right;spacing=20;fontSize=14;" parent="s_mo3S3DV3q-ZQvmNLNy-114" vertex="1">
          <mxGeometry x="20" y="70" width="280" height="150" as="geometry" />
        </mxCell>
        <mxCell id="s_mo3S3DV3q-ZQvmNLNy-117" value="Image&amp;nbsp; &lt;br&gt;menu" style="html=1;shadow=0;dashed=0;shape=mxgraph.bootstrap.topButton;rSize=5;perimeter=none;whiteSpace=wrap;fillColor=#777777;strokeColor=#DFDFDF;fontColor=#DEE2E6;resizeWidth=1;fontSize=18;" parent="s_mo3S3DV3q-ZQvmNLNy-116" vertex="1">
          <mxGeometry width="110" height="120" relative="1" as="geometry">
            <mxPoint x="10" y="10" as="offset" />
          </mxGeometry>
        </mxCell>
        <mxCell id="s_mo3S3DV3q-ZQvmNLNy-125" value="Some example text&lt;br&gt;for example&lt;br&gt;&lt;br&gt;&lt;br&gt;&lt;br&gt;Price: 500p" style="html=1;shadow=0;dashed=0;shape=mxgraph.bootstrap.rrect;rSize=5;strokeColor=#DFDFDF;html=1;whiteSpace=wrap;fillColor=#efedef;fontColor=#000000;verticalAlign=bottom;align=right;spacing=20;fontSize=14;" parent="s_mo3S3DV3q-ZQvmNLNy-114" vertex="1">
          <mxGeometry x="20" y="230" width="280" height="150" as="geometry" />
        </mxCell>
        <mxCell id="s_mo3S3DV3q-ZQvmNLNy-126" value="Image&amp;nbsp; &lt;br&gt;menu" style="html=1;shadow=0;dashed=0;shape=mxgraph.bootstrap.topButton;rSize=5;perimeter=none;whiteSpace=wrap;fillColor=#777777;strokeColor=#DFDFDF;fontColor=#DEE2E6;resizeWidth=1;fontSize=18;" parent="s_mo3S3DV3q-ZQvmNLNy-125" vertex="1">
          <mxGeometry width="110" height="120" relative="1" as="geometry">
            <mxPoint x="10" y="10" as="offset" />
          </mxGeometry>
        </mxCell>
        <mxCell id="s_mo3S3DV3q-ZQvmNLNy-127" value="Some example text&lt;br&gt;for example&lt;br&gt;&lt;br&gt;&lt;br&gt;&lt;br&gt;Price: 500p" style="html=1;shadow=0;dashed=0;shape=mxgraph.bootstrap.rrect;rSize=5;strokeColor=#DFDFDF;html=1;whiteSpace=wrap;fillColor=#efedef;fontColor=#000000;verticalAlign=bottom;align=right;spacing=20;fontSize=14;" parent="s_mo3S3DV3q-ZQvmNLNy-114" vertex="1">
          <mxGeometry x="20" y="390" width="280" height="150" as="geometry" />
        </mxCell>
        <mxCell id="s_mo3S3DV3q-ZQvmNLNy-128" value="Image&amp;nbsp; &lt;br&gt;menu" style="html=1;shadow=0;dashed=0;shape=mxgraph.bootstrap.topButton;rSize=5;perimeter=none;whiteSpace=wrap;fillColor=#777777;strokeColor=#DFDFDF;fontColor=#DEE2E6;resizeWidth=1;fontSize=18;" parent="s_mo3S3DV3q-ZQvmNLNy-127" vertex="1">
          <mxGeometry width="110" height="120" relative="1" as="geometry">
            <mxPoint x="10" y="10" as="offset" />
          </mxGeometry>
        </mxCell>
        <mxCell id="s_mo3S3DV3q-ZQvmNLNy-118" value="Наше меню" style="text;html=1;align=center;verticalAlign=middle;resizable=0;points=[];autosize=1;strokeColor=none;fillColor=none;" parent="1" vertex="1">
          <mxGeometry x="835" y="1248" width="90" height="30" as="geometry" />
        </mxCell>
      </root>
    </mxGraphModel>
  </diagram>
  <diagram id="rMo4wn1NxjaRfR_ncLG1" name="Страница — 2">
    <mxGraphModel dx="1475" dy="755" grid="1" gridSize="10" guides="1" tooltips="1" connect="1" arrows="1" fold="1" page="1" pageScale="1" pageWidth="827" pageHeight="1169" math="0" shadow="0">
      <root>
        <mxCell id="0" />
        <mxCell id="1" parent="0" />
        <mxCell id="AJFG5IgFlcaoCJ3dqjny-1" value="&lt;b&gt;Order&lt;/b&gt;" style="swimlane;fontStyle=0;childLayout=stackLayout;horizontal=1;startSize=26;fillColor=none;horizontalStack=0;resizeParent=1;resizeParentMax=0;resizeLast=0;collapsible=1;marginBottom=0;whiteSpace=wrap;html=1;" vertex="1" parent="1">
          <mxGeometry x="80" y="190" width="140" height="182" as="geometry" />
        </mxCell>
        <mxCell id="AJFG5IgFlcaoCJ3dqjny-2" value="id: Long" style="text;strokeColor=none;fillColor=none;align=left;verticalAlign=top;spacingLeft=4;spacingRight=4;overflow=hidden;rotatable=0;points=[[0,0.5],[1,0.5]];portConstraint=eastwest;whiteSpace=wrap;html=1;" vertex="1" parent="AJFG5IgFlcaoCJ3dqjny-1">
          <mxGeometry y="26" width="140" height="26" as="geometry" />
        </mxCell>
        <mxCell id="AJFG5IgFlcaoCJ3dqjny-3" value="table_id: int" style="text;strokeColor=none;fillColor=none;align=left;verticalAlign=top;spacingLeft=4;spacingRight=4;overflow=hidden;rotatable=0;points=[[0,0.5],[1,0.5]];portConstraint=eastwest;whiteSpace=wrap;html=1;" vertex="1" parent="AJFG5IgFlcaoCJ3dqjny-1">
          <mxGeometry y="52" width="140" height="26" as="geometry" />
        </mxCell>
        <mxCell id="AJFG5IgFlcaoCJ3dqjny-4" value="date: Date" style="text;strokeColor=none;fillColor=none;align=left;verticalAlign=top;spacingLeft=4;spacingRight=4;overflow=hidden;rotatable=0;points=[[0,0.5],[1,0.5]];portConstraint=eastwest;whiteSpace=wrap;html=1;" vertex="1" parent="AJFG5IgFlcaoCJ3dqjny-1">
          <mxGeometry y="78" width="140" height="26" as="geometry" />
        </mxCell>
        <mxCell id="AJFG5IgFlcaoCJ3dqjny-5" value="time: TimeStamp" style="text;strokeColor=none;fillColor=none;align=left;verticalAlign=top;spacingLeft=4;spacingRight=4;overflow=hidden;rotatable=0;points=[[0,0.5],[1,0.5]];portConstraint=eastwest;whiteSpace=wrap;html=1;" vertex="1" parent="AJFG5IgFlcaoCJ3dqjny-1">
          <mxGeometry y="104" width="140" height="26" as="geometry" />
        </mxCell>
        <mxCell id="AJFG5IgFlcaoCJ3dqjny-6" value="persons: int" style="text;strokeColor=none;fillColor=none;align=left;verticalAlign=top;spacingLeft=4;spacingRight=4;overflow=hidden;rotatable=0;points=[[0,0.5],[1,0.5]];portConstraint=eastwest;whiteSpace=wrap;html=1;" vertex="1" parent="AJFG5IgFlcaoCJ3dqjny-1">
          <mxGeometry y="130" width="140" height="26" as="geometry" />
        </mxCell>
        <mxCell id="AJFG5IgFlcaoCJ3dqjny-7" value="customer_id: long" style="text;strokeColor=none;fillColor=none;align=left;verticalAlign=top;spacingLeft=4;spacingRight=4;overflow=hidden;rotatable=0;points=[[0,0.5],[1,0.5]];portConstraint=eastwest;whiteSpace=wrap;html=1;" vertex="1" parent="AJFG5IgFlcaoCJ3dqjny-1">
          <mxGeometry y="156" width="140" height="26" as="geometry" />
        </mxCell>
        <mxCell id="AJFG5IgFlcaoCJ3dqjny-8" value="&lt;b&gt;Customer&lt;/b&gt;" style="swimlane;fontStyle=0;childLayout=stackLayout;horizontal=1;startSize=26;fillColor=none;horizontalStack=0;resizeParent=1;resizeParentMax=0;resizeLast=0;collapsible=1;marginBottom=0;whiteSpace=wrap;html=1;" vertex="1" parent="1">
          <mxGeometry x="80" y="403" width="140" height="130" as="geometry" />
        </mxCell>
        <mxCell id="AJFG5IgFlcaoCJ3dqjny-9" value="id: Long" style="text;strokeColor=none;fillColor=none;align=left;verticalAlign=top;spacingLeft=4;spacingRight=4;overflow=hidden;rotatable=0;points=[[0,0.5],[1,0.5]];portConstraint=eastwest;whiteSpace=wrap;html=1;" vertex="1" parent="AJFG5IgFlcaoCJ3dqjny-8">
          <mxGeometry y="26" width="140" height="26" as="geometry" />
        </mxCell>
        <mxCell id="AJFG5IgFlcaoCJ3dqjny-10" value="birthdate: Date" style="text;strokeColor=none;fillColor=none;align=left;verticalAlign=top;spacingLeft=4;spacingRight=4;overflow=hidden;rotatable=0;points=[[0,0.5],[1,0.5]];portConstraint=eastwest;whiteSpace=wrap;html=1;" vertex="1" parent="AJFG5IgFlcaoCJ3dqjny-8">
          <mxGeometry y="52" width="140" height="26" as="geometry" />
        </mxCell>
        <mxCell id="AJFG5IgFlcaoCJ3dqjny-11" value="phone: String" style="text;strokeColor=none;fillColor=none;align=left;verticalAlign=top;spacingLeft=4;spacingRight=4;overflow=hidden;rotatable=0;points=[[0,0.5],[1,0.5]];portConstraint=eastwest;whiteSpace=wrap;html=1;" vertex="1" parent="AJFG5IgFlcaoCJ3dqjny-8">
          <mxGeometry y="78" width="140" height="26" as="geometry" />
        </mxCell>
        <mxCell id="AJFG5IgFlcaoCJ3dqjny-12" value="notes: String" style="text;strokeColor=none;fillColor=none;align=left;verticalAlign=top;spacingLeft=4;spacingRight=4;overflow=hidden;rotatable=0;points=[[0,0.5],[1,0.5]];portConstraint=eastwest;whiteSpace=wrap;html=1;" vertex="1" parent="AJFG5IgFlcaoCJ3dqjny-8">
          <mxGeometry y="104" width="140" height="26" as="geometry" />
        </mxCell>
        <mxCell id="AJFG5IgFlcaoCJ3dqjny-15" style="edgeStyle=orthogonalEdgeStyle;rounded=0;orthogonalLoop=1;jettySize=auto;html=1;entryX=0;entryY=0.5;entryDx=0;entryDy=0;endArrow=diamond;endFill=0;" edge="1" parent="1" source="AJFG5IgFlcaoCJ3dqjny-9" target="AJFG5IgFlcaoCJ3dqjny-7">
          <mxGeometry relative="1" as="geometry" />
        </mxCell>
        <mxCell id="AJFG5IgFlcaoCJ3dqjny-16" value="1..1" style="edgeLabel;html=1;align=center;verticalAlign=middle;resizable=0;points=[];" vertex="1" connectable="0" parent="AJFG5IgFlcaoCJ3dqjny-15">
          <mxGeometry x="0.7724" y="-3" relative="1" as="geometry">
            <mxPoint x="-6" y="-16" as="offset" />
          </mxGeometry>
        </mxCell>
        <mxCell id="AJFG5IgFlcaoCJ3dqjny-17" value="&lt;b&gt;Table&lt;/b&gt;" style="swimlane;fontStyle=0;childLayout=stackLayout;horizontal=1;startSize=26;fillColor=none;horizontalStack=0;resizeParent=1;resizeParentMax=0;resizeLast=0;collapsible=1;marginBottom=0;whiteSpace=wrap;html=1;" vertex="1" parent="1">
          <mxGeometry x="274" y="190" width="140" height="156" as="geometry" />
        </mxCell>
        <mxCell id="AJFG5IgFlcaoCJ3dqjny-18" value="id: int" style="text;strokeColor=none;fillColor=none;align=left;verticalAlign=top;spacingLeft=4;spacingRight=4;overflow=hidden;rotatable=0;points=[[0,0.5],[1,0.5]];portConstraint=eastwest;whiteSpace=wrap;html=1;" vertex="1" parent="AJFG5IgFlcaoCJ3dqjny-17">
          <mxGeometry y="26" width="140" height="26" as="geometry" />
        </mxCell>
        <mxCell id="AJFG5IgFlcaoCJ3dqjny-19" value="places: int" style="text;strokeColor=none;fillColor=none;align=left;verticalAlign=top;spacingLeft=4;spacingRight=4;overflow=hidden;rotatable=0;points=[[0,0.5],[1,0.5]];portConstraint=eastwest;whiteSpace=wrap;html=1;" vertex="1" parent="AJFG5IgFlcaoCJ3dqjny-17">
          <mxGeometry y="52" width="140" height="26" as="geometry" />
        </mxCell>
        <mxCell id="AJFG5IgFlcaoCJ3dqjny-20" value="remark: String" style="text;strokeColor=none;fillColor=none;align=left;verticalAlign=top;spacingLeft=4;spacingRight=4;overflow=hidden;rotatable=0;points=[[0,0.5],[1,0.5]];portConstraint=eastwest;whiteSpace=wrap;html=1;" vertex="1" parent="AJFG5IgFlcaoCJ3dqjny-17">
          <mxGeometry y="78" width="140" height="26" as="geometry" />
        </mxCell>
        <mxCell id="AJFG5IgFlcaoCJ3dqjny-21" value="hall_id: int" style="text;strokeColor=none;fillColor=none;align=left;verticalAlign=top;spacingLeft=4;spacingRight=4;overflow=hidden;rotatable=0;points=[[0,0.5],[1,0.5]];portConstraint=eastwest;whiteSpace=wrap;html=1;" vertex="1" parent="AJFG5IgFlcaoCJ3dqjny-17">
          <mxGeometry y="104" width="140" height="26" as="geometry" />
        </mxCell>
        <mxCell id="AJFG5IgFlcaoCJ3dqjny-22" value="photo_id: int" style="text;strokeColor=none;fillColor=none;align=left;verticalAlign=top;spacingLeft=4;spacingRight=4;overflow=hidden;rotatable=0;points=[[0,0.5],[1,0.5]];portConstraint=eastwest;whiteSpace=wrap;html=1;" vertex="1" parent="AJFG5IgFlcaoCJ3dqjny-17">
          <mxGeometry y="130" width="140" height="26" as="geometry" />
        </mxCell>
        <mxCell id="AJFG5IgFlcaoCJ3dqjny-23" style="edgeStyle=orthogonalEdgeStyle;rounded=0;orthogonalLoop=1;jettySize=auto;html=1;entryX=1;entryY=0.5;entryDx=0;entryDy=0;endArrow=diamond;endFill=0;" edge="1" parent="1" source="AJFG5IgFlcaoCJ3dqjny-18" target="AJFG5IgFlcaoCJ3dqjny-3">
          <mxGeometry relative="1" as="geometry" />
        </mxCell>
        <mxCell id="AJFG5IgFlcaoCJ3dqjny-24" value="1..1" style="edgeLabel;html=1;align=center;verticalAlign=middle;resizable=0;points=[];" vertex="1" connectable="0" parent="AJFG5IgFlcaoCJ3dqjny-23">
          <mxGeometry x="0.575" y="-2" relative="1" as="geometry">
            <mxPoint y="15" as="offset" />
          </mxGeometry>
        </mxCell>
        <mxCell id="AJFG5IgFlcaoCJ3dqjny-25" value="&lt;b&gt;Hall&lt;/b&gt;" style="swimlane;fontStyle=0;childLayout=stackLayout;horizontal=1;startSize=26;fillColor=none;horizontalStack=0;resizeParent=1;resizeParentMax=0;resizeLast=0;collapsible=1;marginBottom=0;whiteSpace=wrap;html=1;" vertex="1" parent="1">
          <mxGeometry x="480" y="190" width="140" height="182" as="geometry" />
        </mxCell>
        <mxCell id="AJFG5IgFlcaoCJ3dqjny-26" value="id: int" style="text;strokeColor=none;fillColor=none;align=left;verticalAlign=top;spacingLeft=4;spacingRight=4;overflow=hidden;rotatable=0;points=[[0,0.5],[1,0.5]];portConstraint=eastwest;whiteSpace=wrap;html=1;" vertex="1" parent="AJFG5IgFlcaoCJ3dqjny-25">
          <mxGeometry y="26" width="140" height="26" as="geometry" />
        </mxCell>
        <mxCell id="AJFG5IgFlcaoCJ3dqjny-27" value="tablesQuantity: int" style="text;strokeColor=none;fillColor=none;align=left;verticalAlign=top;spacingLeft=4;spacingRight=4;overflow=hidden;rotatable=0;points=[[0,0.5],[1,0.5]];portConstraint=eastwest;whiteSpace=wrap;html=1;" vertex="1" parent="AJFG5IgFlcaoCJ3dqjny-25">
          <mxGeometry y="52" width="140" height="26" as="geometry" />
        </mxCell>
        <mxCell id="AJFG5IgFlcaoCJ3dqjny-28" value="remark: String" style="text;strokeColor=none;fillColor=none;align=left;verticalAlign=top;spacingLeft=4;spacingRight=4;overflow=hidden;rotatable=0;points=[[0,0.5],[1,0.5]];portConstraint=eastwest;whiteSpace=wrap;html=1;" vertex="1" parent="AJFG5IgFlcaoCJ3dqjny-25">
          <mxGeometry y="78" width="140" height="26" as="geometry" />
        </mxCell>
        <mxCell id="AJFG5IgFlcaoCJ3dqjny-29" value="smoke: bool" style="text;strokeColor=none;fillColor=none;align=left;verticalAlign=top;spacingLeft=4;spacingRight=4;overflow=hidden;rotatable=0;points=[[0,0.5],[1,0.5]];portConstraint=eastwest;whiteSpace=wrap;html=1;" vertex="1" parent="AJFG5IgFlcaoCJ3dqjny-25">
          <mxGeometry y="104" width="140" height="26" as="geometry" />
        </mxCell>
        <mxCell id="AJFG5IgFlcaoCJ3dqjny-31" value="musik: bool" style="text;strokeColor=none;fillColor=none;align=left;verticalAlign=top;spacingLeft=4;spacingRight=4;overflow=hidden;rotatable=0;points=[[0,0.5],[1,0.5]];portConstraint=eastwest;whiteSpace=wrap;html=1;" vertex="1" parent="AJFG5IgFlcaoCJ3dqjny-25">
          <mxGeometry y="130" width="140" height="26" as="geometry" />
        </mxCell>
        <mxCell id="AJFG5IgFlcaoCJ3dqjny-30" value="photo_id: int" style="text;strokeColor=none;fillColor=none;align=left;verticalAlign=top;spacingLeft=4;spacingRight=4;overflow=hidden;rotatable=0;points=[[0,0.5],[1,0.5]];portConstraint=eastwest;whiteSpace=wrap;html=1;" vertex="1" parent="AJFG5IgFlcaoCJ3dqjny-25">
          <mxGeometry y="156" width="140" height="26" as="geometry" />
        </mxCell>
        <mxCell id="AJFG5IgFlcaoCJ3dqjny-32" style="edgeStyle=orthogonalEdgeStyle;rounded=0;orthogonalLoop=1;jettySize=auto;html=1;entryX=1;entryY=0.5;entryDx=0;entryDy=0;endArrow=diamond;endFill=0;" edge="1" parent="1" source="AJFG5IgFlcaoCJ3dqjny-26" target="AJFG5IgFlcaoCJ3dqjny-21">
          <mxGeometry relative="1" as="geometry" />
        </mxCell>
        <mxCell id="AJFG5IgFlcaoCJ3dqjny-33" value="1..1" style="edgeLabel;html=1;align=center;verticalAlign=middle;resizable=0;points=[];" vertex="1" connectable="0" parent="AJFG5IgFlcaoCJ3dqjny-32">
          <mxGeometry x="0.75" relative="1" as="geometry">
            <mxPoint y="13" as="offset" />
          </mxGeometry>
        </mxCell>
        <mxCell id="AJFG5IgFlcaoCJ3dqjny-34" value="&lt;b&gt;Photo&lt;/b&gt;" style="swimlane;fontStyle=0;childLayout=stackLayout;horizontal=1;startSize=26;fillColor=none;horizontalStack=0;resizeParent=1;resizeParentMax=0;resizeLast=0;collapsible=1;marginBottom=0;whiteSpace=wrap;html=1;" vertex="1" parent="1">
          <mxGeometry x="274" y="390" width="140" height="78" as="geometry" />
        </mxCell>
        <mxCell id="AJFG5IgFlcaoCJ3dqjny-35" value="id: int" style="text;strokeColor=none;fillColor=none;align=left;verticalAlign=top;spacingLeft=4;spacingRight=4;overflow=hidden;rotatable=0;points=[[0,0.5],[1,0.5]];portConstraint=eastwest;whiteSpace=wrap;html=1;" vertex="1" parent="AJFG5IgFlcaoCJ3dqjny-34">
          <mxGeometry y="26" width="140" height="26" as="geometry" />
        </mxCell>
        <mxCell id="AJFG5IgFlcaoCJ3dqjny-36" value="adress: String" style="text;strokeColor=none;fillColor=none;align=left;verticalAlign=top;spacingLeft=4;spacingRight=4;overflow=hidden;rotatable=0;points=[[0,0.5],[1,0.5]];portConstraint=eastwest;whiteSpace=wrap;html=1;" vertex="1" parent="AJFG5IgFlcaoCJ3dqjny-34">
          <mxGeometry y="52" width="140" height="26" as="geometry" />
        </mxCell>
        <mxCell id="AJFG5IgFlcaoCJ3dqjny-41" style="edgeStyle=orthogonalEdgeStyle;rounded=0;orthogonalLoop=1;jettySize=auto;html=1;entryX=0;entryY=0.5;entryDx=0;entryDy=0;endArrow=diamond;endFill=0;" edge="1" parent="1" source="AJFG5IgFlcaoCJ3dqjny-35" target="AJFG5IgFlcaoCJ3dqjny-22">
          <mxGeometry relative="1" as="geometry" />
        </mxCell>
        <mxCell id="AJFG5IgFlcaoCJ3dqjny-42" value="1..1" style="edgeLabel;html=1;align=center;verticalAlign=middle;resizable=0;points=[];" vertex="1" connectable="0" parent="AJFG5IgFlcaoCJ3dqjny-41">
          <mxGeometry x="0.8088" relative="1" as="geometry">
            <mxPoint x="-1" y="-13" as="offset" />
          </mxGeometry>
        </mxCell>
        <mxCell id="AJFG5IgFlcaoCJ3dqjny-43" style="edgeStyle=orthogonalEdgeStyle;rounded=0;orthogonalLoop=1;jettySize=auto;html=1;entryX=0;entryY=0.5;entryDx=0;entryDy=0;endArrow=diamond;endFill=0;" edge="1" parent="1" source="AJFG5IgFlcaoCJ3dqjny-35" target="AJFG5IgFlcaoCJ3dqjny-30">
          <mxGeometry relative="1" as="geometry" />
        </mxCell>
        <mxCell id="AJFG5IgFlcaoCJ3dqjny-44" value="1..1" style="edgeLabel;html=1;align=center;verticalAlign=middle;resizable=0;points=[];" vertex="1" connectable="0" parent="AJFG5IgFlcaoCJ3dqjny-43">
          <mxGeometry x="0.7353" y="2" relative="1" as="geometry">
            <mxPoint x="-2" y="-11" as="offset" />
          </mxGeometry>
        </mxCell>
        <mxCell id="AJFG5IgFlcaoCJ3dqjny-45" value="&lt;b&gt;Dishes&lt;/b&gt;" style="swimlane;fontStyle=0;childLayout=stackLayout;horizontal=1;startSize=26;fillColor=none;horizontalStack=0;resizeParent=1;resizeParentMax=0;resizeLast=0;collapsible=1;marginBottom=0;whiteSpace=wrap;html=1;" vertex="1" parent="1">
          <mxGeometry x="480" y="403" width="140" height="156" as="geometry" />
        </mxCell>
        <mxCell id="AJFG5IgFlcaoCJ3dqjny-46" value="id: int" style="text;strokeColor=none;fillColor=none;align=left;verticalAlign=top;spacingLeft=4;spacingRight=4;overflow=hidden;rotatable=0;points=[[0,0.5],[1,0.5]];portConstraint=eastwest;whiteSpace=wrap;html=1;" vertex="1" parent="AJFG5IgFlcaoCJ3dqjny-45">
          <mxGeometry y="26" width="140" height="26" as="geometry" />
        </mxCell>
        <mxCell id="AJFG5IgFlcaoCJ3dqjny-47" value="name: String" style="text;strokeColor=none;fillColor=none;align=left;verticalAlign=top;spacingLeft=4;spacingRight=4;overflow=hidden;rotatable=0;points=[[0,0.5],[1,0.5]];portConstraint=eastwest;whiteSpace=wrap;html=1;" vertex="1" parent="AJFG5IgFlcaoCJ3dqjny-45">
          <mxGeometry y="52" width="140" height="26" as="geometry" />
        </mxCell>
        <mxCell id="AJFG5IgFlcaoCJ3dqjny-48" value="price: int" style="text;strokeColor=none;fillColor=none;align=left;verticalAlign=top;spacingLeft=4;spacingRight=4;overflow=hidden;rotatable=0;points=[[0,0.5],[1,0.5]];portConstraint=eastwest;whiteSpace=wrap;html=1;" vertex="1" parent="AJFG5IgFlcaoCJ3dqjny-45">
          <mxGeometry y="78" width="140" height="26" as="geometry" />
        </mxCell>
        <mxCell id="AJFG5IgFlcaoCJ3dqjny-49" value="composition: String" style="text;strokeColor=none;fillColor=none;align=left;verticalAlign=top;spacingLeft=4;spacingRight=4;overflow=hidden;rotatable=0;points=[[0,0.5],[1,0.5]];portConstraint=eastwest;whiteSpace=wrap;html=1;" vertex="1" parent="AJFG5IgFlcaoCJ3dqjny-45">
          <mxGeometry y="104" width="140" height="26" as="geometry" />
        </mxCell>
        <mxCell id="AJFG5IgFlcaoCJ3dqjny-51" value="photo_id: int" style="text;strokeColor=none;fillColor=none;align=left;verticalAlign=top;spacingLeft=4;spacingRight=4;overflow=hidden;rotatable=0;points=[[0,0.5],[1,0.5]];portConstraint=eastwest;whiteSpace=wrap;html=1;" vertex="1" parent="AJFG5IgFlcaoCJ3dqjny-45">
          <mxGeometry y="130" width="140" height="26" as="geometry" />
        </mxCell>
        <mxCell id="AJFG5IgFlcaoCJ3dqjny-52" style="edgeStyle=orthogonalEdgeStyle;rounded=0;orthogonalLoop=1;jettySize=auto;html=1;entryX=0;entryY=0.5;entryDx=0;entryDy=0;endArrow=diamond;endFill=0;" edge="1" parent="1" source="AJFG5IgFlcaoCJ3dqjny-35" target="AJFG5IgFlcaoCJ3dqjny-51">
          <mxGeometry relative="1" as="geometry" />
        </mxCell>
        <mxCell id="AJFG5IgFlcaoCJ3dqjny-53" value="1..1" style="edgeLabel;html=1;align=center;verticalAlign=middle;resizable=0;points=[];" vertex="1" connectable="0" parent="AJFG5IgFlcaoCJ3dqjny-52">
          <mxGeometry x="0.7705" y="2" relative="1" as="geometry">
            <mxPoint y="-11" as="offset" />
          </mxGeometry>
        </mxCell>
        <mxCell id="AJFG5IgFlcaoCJ3dqjny-54" value="ERD" style="text;html=1;align=center;verticalAlign=middle;resizable=0;points=[];autosize=1;strokeColor=none;fillColor=none;" vertex="1" parent="1">
          <mxGeometry x="65" y="138" width="50" height="30" as="geometry" />
        </mxCell>
      </root>
    </mxGraphModel>
  </diagram>
</mxfile>
